{"title":"Secretariat.2010.720p.BRRip.x264.Feel-Free","uid":6072912,"size":2460596921,"categoryP":"video","categoryS":"hd___movies","magnet":"?xt=urn:btih:10ff7dd6543104ac2c2c072453b912a1b10e4717&amp;dn=Secretariat.2010.720p.BRRip.x264.Feel-Free&amp;tr=udp%3A%2F%2Ftracker.openbittorrent.com%3A80&amp;tr=udp%3A%2F%2Fopen.demonii.com%3A1337&amp;tr=udp%3A%2F%2Ftracker.coppersurfer.tk%3A6969&amp;tr=udp%3A%2F%2Fexodus.desync.com%3A6969","seeders":0,"leechers":1,"uploader":".BONE.","files":10,"time":1293703760,"description":"Genre:Drama | Family | History\nLanguage:English\n &lt;a href=&quot;\nhttp://www.imdb.com/title/tt1028576/&quot; rel=&quot;nofollow&quot; target=&quot;_NEW&quot;&gt;\nhttp://www.imdb.com/title/tt1028576/&lt;/a&gt;\n\nSource:BluRay.x264-METiS\n\n\nFormat : Matroska\nFile size : 2.29 GiB\nDuration : 2h 2mn\nOverall bit rate : 2 661 Kbps\n\n\nVideo\nFormat settings, CABAC : Yes\nFormat settings, ReFrames : 4 frames\nFormat settings, GOP : M=1, N=32\nCodec ID : V_MPEG4/ISO/AVC\nDuration : 2h 2mn\nBit rate : 2 300 Kbps\nWidth : 1 280 pixels\nHeight : 544 pixels\nDisplay aspect ratio : 2.35:1\nFrame rate mode : Variable\nFrame rate : 23.976 fps\nColor space : YUV\nChroma subsampling : 4:2:0\nBit depth : 8 bits\nScan type : Progressive\nBits/(Pixel*Frame) : 0.138\nStream size : 1.91 GiB (84%)\nWriting library : x264\n\n\nAudio\nID : 2\nFormat : AC-3\nFormat/Info : Audio Coding 3\nMode extension : CM (complete main)\nCodec ID : A_AC3\nDuration : 2h 2mn\nBit rate mode : Constant\nBit rate : 384 Kbps\nChannel(s) : 6 channels\nChannel positions : Front: L C R, Side: L R, LFE\nSampling rate : 48.0 KHz\nBit depth : 16 bits\nVideo delay : -1mn 5s\nStream size : 338 MiB (14%)\nLanguage : English\n\n\nPlot:\nPenny Chenery Tweedy and colleagues guide her long-shot but precocious stallion to set, in 1973, the unbeaten record for winning the Triple Crown.\n\n &lt;a href=&quot;\nhttp://img291.imageshack.us/img291/8104/vlcsnap2010123010h20m01.png&quot; rel=&quot;nofollow&quot; target=&quot;_NEW&quot;&gt;\nhttp://img291.imageshack.us/img291/8104/vlcsnap2010123010h20m01.png&lt;/a&gt;\n &lt;a href=&quot;\nhttp://img560.imageshack.us/img560/6185/vlcsnap2010123010h20m13.png&quot; rel=&quot;nofollow&quot; target=&quot;_NEW&quot;&gt;\nhttp://img560.imageshack.us/img560/6185/vlcsnap2010123010h20m13.png&lt;/a&gt;\n &lt;a href=&quot;\nhttp://img407.imageshack.us/img407/227/vlcsnap2010123010h21m00.png&quot; rel=&quot;nofollow&quot; target=&quot;_NEW&quot;&gt;\nhttp://img407.imageshack.us/img407/227/vlcsnap2010123010h21m00.png&lt;/a&gt;\n &lt;a href=&quot;\nhttp://img63.imageshack.us/img63/330/vlcsnap2010123010h21m26.png&quot; rel=&quot;nofollow&quot; target=&quot;_NEW&quot;&gt;\nhttp://img63.imageshack.us/img63/330/vlcsnap2010123010h21m26.png&lt;/a&gt;\n &lt;a href=&quot;\nhttp://img156.imageshack.us/img156/1115/vlcsnap2010123010h21m37.png&quot; rel=&quot;nofollow&quot; target=&quot;_NEW&quot;&gt;\nhttp://img156.imageshack.us/img156/1115/vlcsnap2010123010h21m37.png&lt;/a&gt;\n &lt;a href=&quot;\nhttp://img407.imageshack.us/img407/7815/vlcsnap2010123010h22m28.png&quot; rel=&quot;nofollow&quot; target=&quot;_NEW&quot;&gt;\nhttp://img407.imageshack.us/img407/7815/vlcsnap2010123010h22m28.png&lt;/a&gt;","torrent":{"xt":"urn:btih:10ff7dd6543104ac2c2c072453b912a1b10e4717","amp;dn":"Secretariat.2010.720p.BRRip.x264.Feel-Free","amp;tr":["udp%3A%2F%2Ftracker.openbittorrent.com%3A80","udp%3A%2F%2Fopen.demonii.com%3A1337","udp%3A%2F%2Ftracker.coppersurfer.tk%3A6969","udp%3A%2F%2Fexodus.desync.com%3A6969"],"infoHash":"10ff7dd6543104ac2c2c072453b912a1b10e4717","infoHashBuffer":{"type":"Buffer","data":[16,255,125,214,84,49,4,172,44,44,7,36,83,185,18,161,177,14,71,23]},"announce":[],"urlList":[]}}